<?xml version="1.0" encoding="UTF-8"?>
<svg fill="white" viewBox="0 0 224 64" xmlns="http://www.w3.org/2000/svg">
<path d="m62.445 20.131v-16.439h12.041v3.6989h-7.8084v2.5481h7.644v3.6989h-7.644v2.7947h7.8084v3.6988h-12.041z"/>
<path d="m77.117 11.912c0-5.0962 3.8631-8.5074 8.918-8.5074 3.9864 0 6.0823 2.2604 7.1919 4.3976l-3.6576 1.7262c-0.5342-1.3152-1.9315-2.3837-3.5343-2.3837-2.6713 0-4.6028 2.0549-4.6028 4.7674 0 2.6714 1.8904 4.7675 4.6028 4.7675 1.5617 0 3.0001-1.0686 3.5343-2.3838l3.6576 1.7262c-1.0685 2.1371-3.2055 4.3975-7.1919 4.3975-5.096 0-8.918-3.4522-8.918-8.5074z"/>
<path d="m95.158 11.912c0-5.014 3.781-8.5074 8.7949-8.5074 5.014 0 8.795 3.4934 8.795 8.5074 0 5.0141-3.74 8.5074-8.795 8.5074-5.0139 0-8.7949-3.4933-8.7949-8.5074zm13.274 0c0-2.6714-1.767-4.7674-4.479-4.7674-2.754 0-4.4797 2.0549-4.4797 4.7674 0 2.6714 1.7667 4.7675 4.4797 4.7675 2.712 0 4.479-2.0961 4.479-4.7675z"/>
<path d="m130.3 20.131v-10.686l-4.151 10.686h-1.89l-4.151-10.686v10.686h-4.233v-16.439h5.877l3.411 8.9184 3.452-8.9184h5.877v16.439h-4.192z"/>
<path d="m152.9 20.131v-10.686l-4.151 10.686h-1.89l-4.151-10.686v10.686h-4.233v-16.439h5.877l3.411 8.9184 3.452-8.9184h5.877v16.439h-4.192z"/>
<path d="m161.08 20.131v-16.439h12.042v3.6989h-7.809v2.5481h7.644v3.6989h-7.644v2.7947h7.809v3.6988h-12.042z"/>
<path d="m185.78 20.131-2.754-5.5072h-2.178v5.5072h-4.233v-16.439h8.219c3.658 0 5.713 2.4248 5.713 5.4661 0 2.8769-1.767 4.3976-3.288 4.9318l3.37 6.0415h-4.849zm0.452-11.014c0-1.1097-0.946-1.7672-2.055-1.7672h-3.37v3.5344h3.37c1.15 0 2.055-0.6164 2.055-1.7672z"/>
<path d="m193.05 11.912c0-5.0962 3.863-8.5074 8.918-8.5074 3.986 0 6.082 2.2604 7.192 4.3976l-3.658 1.7262c-0.534-1.3152-1.932-2.3837-3.534-2.3837-2.672 0-4.603 2.0549-4.603 4.7674 0 2.6714 1.89 4.7675 4.603 4.7675 1.561 0 3-1.0686 3.534-2.3838l3.658 1.7262c-1.069 2.1371-3.206 4.3975-7.192 4.3975-5.055 0-8.918-3.4522-8.918-8.5074z"/>
<path d="m211.96 20.131v-16.439h12.042v3.6989h-7.809v2.5481h7.644v3.6989h-7.644v2.7947h7.809v3.6988h-12.042z"/>
<path d="m62.445 39.859v-16.44h12.041v3.6989h-7.8084v2.5481h7.644v3.6989h-7.644v2.7947h7.8084v3.6989h-12.041z"/>
<path d="m88.377 39.859-3.5754-5.5072-3.5754 5.5072h-5.0138l5.7535-8.4252-5.3836-8.0143h5.0138l3.2466 5.1374 3.1644-5.1374h5.0139l-5.3426 7.9732 5.7124 8.4663h-5.0138z"/>
<path d="m95.61 39.859v-16.44h8.2195c3.699 0 5.712 2.5071 5.712 5.4662s-2.013 5.4661-5.712 5.4661h-3.9866v5.5072h-4.2329zm9.6165-10.973c0-1.1508-0.822-1.7673-1.973-1.7673h-3.4106v3.5345h3.4106c1.151-0.0411 1.973-0.6576 1.973-1.7672z"/>
<path d="m112.46 39.859v-16.44h12.042v3.6989h-7.809v2.5481h7.644v3.6989h-7.644v2.7947h7.809v3.6989h-12.042z"/>
<path d="m137.12 39.859-2.753-5.5072h-2.178v5.5072h-4.233v-16.44h8.219c3.658 0 5.712 2.4249 5.712 5.4662 0 2.8769-1.767 4.3975-3.287 4.9318l3.37 6.0415h-4.85zm0.493-11.014c0-1.1097-0.945-1.7673-2.054-1.7673h-3.37v3.5345h3.37c1.109 0 2.054-0.6165 2.054-1.7672z"/>
<path d="m145.26 39.859v-16.44h4.233v16.44h-4.233z"/>
<path d="m153.43 39.859v-16.44h12.041v3.6989h-7.808v2.5481h7.644v3.6989h-7.644v2.7947h7.808v3.6989h-12.041z"/>
<path d="m180.15 39.859-6.945-9.5349v9.5349h-4.233v-16.44h4.356l6.658 9.0417v-9.0417h4.274v16.44h-4.11z"/>
<path d="m187.34 31.639c0-5.0963 3.864-8.5074 8.918-8.5074 3.987 0 6.083 2.2604 7.192 4.3975l-3.657 1.7262c-0.534-1.3152-1.932-2.3838-3.535-2.3838-2.671 0-4.602 2.055-4.602 4.7675s1.89 4.7674 4.602 4.7674c1.562 0 3.001-1.0685 3.535-2.3837l3.657 1.7262c-1.068 2.1371-3.205 4.3975-7.192 4.3975-5.096 0-8.918-3.4523-8.918-8.5074z"/>
<path d="m206.2 39.859v-16.44h12.041v3.6989h-7.808v2.5481h7.685v3.6989h-7.644v2.7947h7.808v3.6989h-12.082z"/>
<path d="m62.445 59.586v-16.439h12.041v3.6989h-7.8084v2.5481h7.644v3.6988h-7.644v2.7948h7.8084v3.6988h-12.041z"/>
<path d="m82.377 59.586-6.2056-16.439h4.8083l4.0275 11.878 4.0686-11.878h4.8083l-6.2056 16.439h-5.3015z"/>
<path d="m94.788 51.366c0-5.014 3.7809-8.5074 8.7945-8.5074 5.014 0 8.795 3.4934 8.795 8.5074 0 5.0141-3.74 8.5074-8.795 8.5074-5.0136 0-8.7945-3.4933-8.7945-8.5074zm13.274 0c0-2.6714-1.767-4.7674-4.48-4.7674-2.753 0-4.4794 2.0549-4.4794 4.7674 0 2.6714 1.7674 4.7675 4.4794 4.7675 2.713 0 4.48-2.0961 4.48-4.7675z"/>
<path d="m115.5 59.586v-16.439h4.233v12.741h6.617v3.6988h-10.85z"/>
<path d="m128.98 52.928v-9.7815h4.315v9.6582c0 1.9316 1.151 3.3701 3.494 3.3701 2.26 0 3.452-1.3974 3.452-3.3701v-9.6582h4.274v9.7815c0 4.1098-2.507 6.9867-7.726 6.9867-5.302-0.0411-7.809-2.9591-7.809-6.9867z"/>
<path d="m152.16 59.586v-12.74h-4.603v-3.6989h13.439v3.6989h-4.603v12.74h-4.233z"/>
<path d="m164 59.586v-16.439h4.233v16.439h-4.233z"/>
<path d="m171.31 51.366c0-5.014 3.781-8.5074 8.794-8.5074 5.014 0 8.795 3.4934 8.795 8.5074 0 5.0141-3.74 8.5074-8.795 8.5074-5.013 0-8.794-3.4933-8.794-8.5074zm13.274 0c0-2.6714-1.767-4.7674-4.48-4.7674-2.753 0-4.479 2.0549-4.479 4.7674 0 2.6714 1.767 4.7675 4.479 4.7675 2.754 0 4.48-2.0961 4.48-4.7675z"/>
<path d="m203.24 59.586-6.945-9.5349v9.5349h-4.233v-16.439h4.356l6.657 9.0417v-9.0417h4.275v16.439h-4.11z"/>
<path d="m50.909 25.167-5.7893-5.6505v-19.516h-45.072l13.546 13.902h16.894v5.123l-6.1026 5.9997h-10.653v13.997h10.748l-0.0947 0.0946 6.1026 5.9524v5.0284h-16.942l-13.546 13.902h45.116v-19.378l5.7894-5.6941-7.0318-6.8803 7.0318-6.8803h0.0036zm-5.7893 18.436-0.3461 0.3383-7.0318-6.8802-0.51 0.4948-6.7112 6.5273-0.0328-0.0327-5.0606-4.9374 0.0947-0.0946 7.1265-6.9748-7.2212-7.0222 5.0606-4.9774 0.0328-0.0327 7.2176 7.0658 7.0317-6.8803 5.0898 4.9665-7.0317 6.8803 7.0354 6.8839-4.751 4.6717 0.0073 0.0037z"/>
</svg>
